<?xml version="1.0" encoding="UTF-8"?>
<svg version="1.1" xmlns="http://www.w3.org/2000/svg" width="512" height="512">
<path d="M0 0 C0.92413696 -0.00619858 1.84827393 -0.01239716 2.80041504 -0.01878357 C4.74339756 -0.02584937 6.68644103 -0.02276474 8.62939453 -0.01000977 C11.58610305 0.00387035 14.53965104 -0.03027988 17.49609375 -0.06835938 C19.39322993 -0.06931063 21.29037004 -0.06745143 23.1875 -0.0625 C24.06168579 -0.07575821 24.93587158 -0.08901642 25.83654785 -0.10267639 C33.03949836 0.00550695 37.81129527 2.45776786 43.01171875 7.3828125 C49.15500833 15.83219848 52.18902725 25.01992437 54.40625 35.12890625 C54.57785645 35.89565674 54.74946289 36.66240723 54.92626953 37.45239258 C56.21181435 43.78158951 56.09375 48.82834276 56.09375 55.56640625 C63.35375 55.56640625 70.61375 55.56640625 78.09375 55.56640625 C79.08375 52.59640625 80.07375 49.62640625 81.09375 46.56640625 C85.13479294 37.63663033 90.26766796 29.28477687 99.09375 24.56640625 C101.70239258 23.95385742 101.70239258 23.95385742 104.48828125 23.609375 C105.51864502 23.46967285 106.54900879 23.3299707 107.6105957 23.18603516 C108.69816162 23.04343262 109.78572754 22.90083008 110.90625 22.75390625 C124.0002027 20.84415546 134.761291 17.4891902 146.40625 11.19140625 C152.93830524 7.82801737 158.48086747 7.32223762 165.5703125 9.234375 C172.33845393 11.82618836 176.3025759 16.06048148 179.55859375 22.43359375 C181.92650724 28.16976515 182.98783753 34.33340055 184.28125 40.37890625 C184.69020508 42.23805664 184.69020508 42.23805664 185.10742188 44.13476562 C187.09375 53.24997063 187.09375 53.24997063 187.09375 55.56640625 C198.97375 55.56640625 210.85375 55.56640625 223.09375 55.56640625 C223.09375 51.93640625 223.09375 48.30640625 223.09375 44.56640625 C223.56189857 41.3469041 224.0742592 38.28779425 224.78125 35.12890625 C224.96059082 34.31123779 225.13993164 33.49356934 225.32470703 32.65112305 C228.08942 20.64108672 232.47869355 8.73874169 243.09375 1.56640625 C245.81375315 0.65973853 247.52261945 0.41727803 250.33056641 0.35766602 C251.18220367 0.3383754 252.03384094 0.31908478 252.9112854 0.29920959 C256.81564813 0.24115367 260.71983144 0.19215919 264.62451172 0.16137695 C266.67676669 0.13984074 268.72893089 0.10579017 270.78076172 0.05883789 C273.75269237 -0.00849903 276.72272437 -0.03567958 279.6953125 -0.0546875 C281.05518784 -0.09643349 281.05518784 -0.09643349 282.4425354 -0.13902283 C289.43788094 -0.11672816 293.76426533 2.09555234 299.09375 6.56640625 C313.43675919 22.16317499 314.73984924 49.42956662 314.18701172 69.39111328 C313.38001662 88.21395712 310.64960596 111.07850711 296.09375 124.56640625 C290.40052489 128.73218072 284.65037594 128.73110548 277.79296875 128.76953125 C276.99776321 128.77523132 276.20255768 128.7809314 275.383255 128.7868042 C273.70481687 128.79622317 272.0263605 128.8027758 270.34790039 128.80664062 C267.79995945 128.81633506 265.25282972 128.8473826 262.70507812 128.87890625 C261.06771308 128.8854386 259.43034232 128.89068816 257.79296875 128.89453125 C257.04061447 128.90687805 256.28826019 128.91922485 255.5131073 128.9319458 C248.93365874 128.90467385 242.31427927 127.48723779 237.46875 122.69140625 C225.65010692 109.82281538 223.09375 89.10847766 223.09375 72.56640625 C210.88375 72.89640625 198.67375 73.22640625 186.09375 73.56640625 C183.61875 78.51640625 183.61875 78.51640625 181.09375 83.56640625 C179.25 86.30078125 179.25 86.30078125 177.59375 88.31640625 C176.98917969 89.05375 176.38460937 89.79109375 175.76171875 90.55078125 C175.21128906 91.2159375 174.66085938 91.88109375 174.09375 92.56640625 C173.371875 93.55640625 172.65 94.54640625 171.90625 95.56640625 C167.26254532 101.10194825 160.63841418 105.10696372 154.74609375 109.1953125 C147.17371936 114.54995874 142.66305035 120.45779455 140.56640625 129.59765625 C138.24238831 144.19479372 141.58199557 158.23669191 148.921875 170.91796875 C150.30710977 174.04859933 150.44770072 176.17593092 150.09375 179.56640625 C148.10576265 182.42413807 146.57437658 184.1073208 143.19140625 185.15625 C140.86313636 185.41097434 139.32061457 185.30723324 137.09375 184.56640625 C127.151979 176.36676802 123.53760207 158.73601655 122.09375 146.56640625 C121.26518781 130.32977417 123.07370609 114.79731024 134.4296875 102.0859375 C138.67493703 98.20940682 143.44814316 94.93964943 148.09375 91.56640625 C157.25861528 84.87280665 166.59062611 76.78205291 170.09375 65.56640625 C170.2090536 57.66994004 167.98509563 49.76727405 166.21875 42.12890625 C165.83396484 40.37416992 165.83396484 40.37416992 165.44140625 38.58398438 C165.05662109 36.9065918 165.05662109 36.9065918 164.6640625 35.1953125 C164.43477051 34.1854126 164.20547852 33.1755127 163.96923828 32.13500977 C163.05854682 29.4631233 162.32998407 28.25228549 160.09375 26.56640625 C156.03153259 25.96727856 153.9671212 26.97588915 150.65625 29.25390625 C142.4999648 34.30699839 134.37430443 37.22940798 124.8828125 38.4140625 C123.77687744 38.5569873 122.67094238 38.69991211 121.53149414 38.84716797 C119.32179576 39.11345061 117.10676927 39.33937013 114.88842773 39.52001953 C110.32252622 40.05986208 107.21926988 40.45056453 103.87915039 43.76196289 C102.07607542 46.29850006 100.54319901 48.8142617 99.09375 51.56640625 C98.61494385 52.45078369 98.1361377 53.33516113 97.64282227 54.24633789 C93.89043186 61.47626445 92.3250097 69.28377597 90.62060547 77.17724609 C89.88667742 80.50542956 89.08816858 83.81689811 88.28881836 87.12988281 C87.64614305 89.79583196 87.01339546 92.46397916 86.3828125 95.1328125 C85.5381627 98.70687316 84.67655388 102.27624211 83.8046875 105.84375 C74.91105447 142.79698202 71.9395636 181.46746884 71.85351562 219.41821289 C71.84376538 221.99983436 71.81254313 224.58067095 71.78125 227.16210938 C71.64147683 249.29984714 75.71103411 270.57669045 83.6640625 291.2265625 C84.0089119 292.12572388 84.35376129 293.02488525 84.70906067 293.95129395 C88.448154 303.61219399 92.44508865 313.1601433 96.5402832 322.67480469 C97.8023408 325.61555034 99.04657621 328.56348146 100.29101562 331.51171875 C101.10309235 333.40540898 101.91620356 335.298656 102.73046875 337.19140625 C103.09516769 338.06216797 103.45986664 338.93292969 103.83561707 339.83007812 C106.20650122 345.27042828 108.56771904 349.80339077 114.09375 352.56640625 C117.98782751 353.19294825 121.59007454 353.45372365 125.06640625 351.40234375 C127.78197818 349.07471066 130.1291589 346.52736567 132.53125 343.87890625 C138.45555809 338.53257943 144.9652296 338.1578612 152.55078125 338.4140625 C154.39118159 338.44583471 156.23159582 338.47681012 158.07202148 338.50708008 C159.02503143 338.527836 159.97804138 338.54859192 160.95993042 338.56997681 C179.09220768 338.93264113 196.28435417 338.29560545 214.09375 334.56640625 C214.98852051 334.38980469 215.88329102 334.21320313 216.80517578 334.03125 C261.38518681 325.11359638 305.46591825 304.28700704 341.8203125 277.046875 C342.62412354 276.44915283 343.42793457 275.85143066 344.25610352 275.2355957 C345.8238016 274.06368916 347.38211678 272.87909532 348.92944336 271.68041992 C352.22630712 269.21436137 354.30982188 267.67604655 358.4453125 267.09765625 C362.03194153 267.73245785 363.63335598 268.89512131 366.09375 271.56640625 C367.09375 274.50390625 367.09375 274.50390625 367.09375 277.56640625 C361.52820063 288.52138001 349.19821369 295.22815175 339.09375 301.56640625 C338.35898437 302.02917969 337.62421875 302.49195313 336.8671875 302.96875 C288.4894081 333.22536118 228.65631508 358.95507675 170.4765625 357.41796875 C169.72362915 357.40076279 168.9706958 357.38355682 168.19494629 357.36582947 C161.93422232 357.22093601 161.93422232 357.22093601 158.84082031 357.09326172 C149.96464314 356.37377449 149.96464314 356.37377449 141.85302734 359.05029297 C140.39020814 360.81633999 139.26006389 362.59807775 138.09375 364.56640625 C135.6796875 366.30859375 135.6796875 366.30859375 133.46875 367.44140625 C132.73398438 367.83070313 131.99921875 368.22 131.2421875 368.62109375 C123.74608214 371.91938011 114.41402786 371.77300705 106.78125 369.00390625 C98.78751119 365.22011712 94.31751854 360.63763334 90.453125 352.66796875 C90.11286285 351.97597382 89.77260071 351.28397888 89.42202759 350.5710144 C85.26459266 342.01042937 81.46714405 333.28788021 77.70214844 324.54931641 C76.47169748 321.69823585 75.22843095 318.85297826 73.984375 316.0078125 C67.54263217 301.17002443 61.76231965 286.22975618 58.34375 270.37890625 C58.14910156 269.53650391 57.95445313 268.69410156 57.75390625 267.82617188 C54.4643732 253.04535053 53.75738052 238.70005519 53.84375 223.62890625 C53.84685181 222.6642041 53.84995361 221.69950195 53.85314941 220.70556641 C53.91853632 203.26235263 54.52345591 185.94665924 56.09375 168.56640625 C56.15691406 167.8584491 56.22007813 167.15049194 56.28515625 166.42108154 C58.90501488 137.34980102 63.5622898 109.00516971 71.5246582 80.86694336 C72.20084217 78.13348925 72.63082755 75.34394094 73.09375 72.56640625 C67.48375 72.56640625 61.87375 72.56640625 56.09375 72.56640625 C56.17625 73.96890625 56.25875 75.37140625 56.34375 76.81640625 C56.32208852 93.56073285 51.88332572 110.9812215 40.5703125 123.5078125 C34.75304197 128.34330393 29.23634073 129.02631758 21.94140625 129 C21.08244247 129.00524185 20.2234787 129.0104837 19.33848572 129.0158844 C17.53076249 129.02227726 15.72299751 129.02100324 13.9152832 129.01245117 C11.16736947 129.00394069 8.42153707 129.03274028 5.67382812 129.06445312 C3.90885478 129.06606554 2.1438778 129.06548684 0.37890625 129.0625 C-0.43279526 129.07373398 -1.24449677 129.08496796 -2.08079529 129.09654236 C-8.76847137 129.01586569 -13.86308096 127.06436402 -19.04296875 122.8125 C-34.78175446 104.45719072 -36.26349758 76.00563206 -34.59375 52.9375 C-33.20355875 36.34554234 -29.9954475 17.028216 -17.90625 4.56640625 C-12.09739883 0.68767334 -6.86241141 -0.03893528 0 0 Z M-8.1640625 19.67578125 C-10.03117407 22.77367937 -11.32808803 25.71735988 -12.53125 29.12890625 C-12.93601562 30.24394531 -13.34078125 31.35898438 -13.7578125 32.5078125 C-16.74274732 42.2713246 -17.25445507 52.17344865 -17.22192383 62.31958008 C-17.21876898 64.36659384 -17.24230854 66.41214822 -17.26757812 68.45898438 C-17.33368656 82.30543269 -15.56072314 97.34068691 -8.19921875 109.3515625 C-6.03951139 111.86584806 -6.03951139 111.86584806 -2.671875 112.0546875 C-1.51171875 111.99667969 -0.3515625 111.93867188 0.84375 111.87890625 C2.59945312 111.81123047 2.59945312 111.81123047 4.390625 111.7421875 C5.28265625 111.68417969 6.1746875 111.62617188 7.09375 111.56640625 C6.91199219 110.93476563 6.73023437 110.303125 6.54296875 109.65234375 C-0.78396686 83.57596778 -0.78396686 83.57596778 1.09375 73.56640625 C3.50494389 71.15521236 4.68117919 70.6179776 8.09375 70.19140625 C11.50447908 70.61774739 12.62964127 71.22632771 15.09375 73.56640625 C15.94335938 75.95141602 15.94335938 75.95141602 16.4375 78.7578125 C16.63214844 79.78583984 16.82679687 80.81386719 17.02734375 81.87304688 C17.21425781 82.94748047 17.40117188 84.02191406 17.59375 85.12890625 C19.65667546 99.09119191 19.65667546 99.09119191 27.09375 110.56640625 C29.8501497 109.55397069 30.93810238 108.82523104 32.47265625 106.2734375 C36.90391067 95.43660739 39.71286447 84.32958115 39.09375 72.56640625 C38.11792969 72.52902344 37.14210937 72.49164063 36.13671875 72.453125 C34.86441406 72.38738281 33.59210938 72.32164062 32.28125 72.25390625 C31.01667969 72.19589844 29.75210938 72.13789063 28.44921875 72.078125 C25.09375 71.56640625 25.09375 71.56640625 23.1640625 70.2734375 C21.86851736 68.20718485 21.72150808 66.99284718 21.78125 64.56640625 C21.78511719 63.88578125 21.78898437 63.20515625 21.79296875 62.50390625 C22.09375 60.56640625 22.09375 60.56640625 24.09375 57.56640625 C27.25620541 56.51225445 29.96323218 56.25364953 33.28125 56.00390625 C34.36792969 55.92011719 35.45460937 55.83632812 36.57421875 55.75 C37.40566406 55.68941406 38.23710938 55.62882812 39.09375 55.56640625 C40.07128816 42.12525661 35.75272824 29.0864386 29.09375 17.56640625 C25.30585887 19.1999343 23.8671664 20.97245537 22.1015625 24.75390625 C20.27163374 29.8606842 19.17626046 35.15165119 18.0234375 40.4453125 C17.71658975 41.81969449 17.40676671 43.19341611 17.09375 44.56640625 C16.86800293 45.56389893 16.86800293 45.56389893 16.63769531 46.58154297 C15.70120145 50.31303656 15.4209825 51.34825125 12.09375 53.56640625 C8.51518083 53.79482556 5.53343692 53.49504743 2.09375 52.56640625 C-0.21981388 40.61299285 3.74284425 29.0140707 7.09375 17.56640625 C5.01221065 17.43104603 2.92813794 17.3342516 0.84375 17.25390625 C-0.89648438 17.16689453 -0.89648438 17.16689453 -2.671875 17.078125 C-6.01708876 17.27110269 -6.01708876 17.27110269 -8.1640625 19.67578125 Z M250.09375 17.56640625 C236.50160979 39.46485436 237.01913918 68.10022175 242.09375 92.56640625 C243.83974646 99.4063924 245.85750896 106.60147304 251.09375 111.56640625 C254.36373075 112.16948695 254.36373075 112.16948695 257.84375 111.87890625 C259.59945313 111.81123047 259.59945313 111.81123047 261.390625 111.7421875 C262.28265625 111.68417969 263.1746875 111.62617188 264.09375 111.56640625 C263.83980469 110.60863281 263.58585937 109.65085937 263.32421875 108.6640625 C262.18791929 104.31212416 261.13443626 99.94204053 260.09375 95.56640625 C259.78566406 94.303125 259.47757812 93.03984375 259.16015625 91.73828125 C254.28603372 68.69697476 255.88504633 44.26960562 263.32421875 22.0078125 C264.1939567 19.6751271 264.1939567 19.6751271 264.09375 17.56640625 C259.47375 17.56640625 254.85375 17.56640625 250.09375 17.56640625 Z M284.09375 17.56640625 C280.6171061 21.22311537 279.03161715 24.80722372 277.46875 29.56640625 C277.06398438 30.76265625 276.65921875 31.95890625 276.2421875 33.19140625 C273.37478514 43.21344192 272.72939883 53.44466947 272.78125 63.81640625 C272.78616455 64.99154785 272.7910791 66.16668945 272.79614258 67.37744141 C272.99426538 82.17670664 274.66379364 97.92147171 283.09375 110.56640625 C285.03625174 110.30549249 285.03625174 110.30549249 287.09375 109.56640625 C300.03967657 88.93383579 299.09708058 58.81938187 293.89697266 35.88256836 C292.22917168 29.26547532 289.55907438 23.4574577 286.09375 17.56640625 C285.43375 17.56640625 284.77375 17.56640625 284.09375 17.56640625 Z " fill="#FEA800" transform="translate(65.90625,70.43359375)"/>
<path d="M0 0 C4.81319339 4.16748 9.14532088 8.64432737 13.1875 13.5625 C13.89362427 14.39334106 13.89362427 14.39334106 14.61401367 15.2409668 C18.14980136 19.782179 18.38999949 22.79737983 17.8125 28.3125 C15.76944308 31.37708538 14.37170198 32.13403128 10.875 33.25 C7.10624763 33.32691331 5.86240138 32.47574816 2.8125 30.3125 C0.7421875 27.96484375 0.7421875 27.96484375 -1.3125 25.25 C-14.49674621 8.75881415 -33.08757196 -3.39063624 -54.1875 -6.6875 C-73.2113908 -8.31245734 -90.90363798 -3.17681005 -106.0625 8.625 C-115.5641235 16.90060757 -124.71206409 28.59063951 -127.1875 41.3125 C-126.27871094 41.6528125 -125.36992187 41.993125 -124.43359375 42.34375 C-117.44346425 45.01782639 -110.6738351 47.92028629 -104.0625 51.4375 C-103.44818115 51.76169922 -102.8338623 52.08589844 -102.20092773 52.41992188 C-93.18245507 57.32258985 -93.18245507 57.32258985 -91.1875 61.3125 C-90.69694093 65.64577174 -90.71005561 67.63250344 -93.25 71.25 C-96.96577818 73.85895064 -98.7090172 73.73588598 -103.1875 73.3125 C-106.37109375 71.80859375 -106.37109375 71.80859375 -109.625 69.75 C-127.0160901 59.20343477 -147.06335397 51.33000314 -167.625 55.4375 C-173.94969993 57.00389765 -178.90278675 59.55148145 -184.1875 63.3125 C-185.239375 64.055 -186.29125 64.7975 -187.375 65.5625 C-194.11116828 72.14897565 -198.42946723 80.32437234 -202.70703125 88.625 C-204.1875 91.3125 -204.1875 91.3125 -206.1875 93.3125 C-208.17578125 93.68359375 -208.17578125 93.68359375 -210.5 93.75 C-211.25925781 93.78996094 -212.01851562 93.82992187 -212.80078125 93.87109375 C-217.49092078 92.77340152 -219.77450301 88.93049368 -222.3359375 85.09765625 C-223.08404766 83.86033249 -223.82588485 82.61920136 -224.5625 81.375 C-227.59772944 76.33663886 -230.75927831 71.44534388 -234.171875 66.65234375 C-234.85588379 65.68482178 -235.53989258 64.7172998 -236.24462891 63.72045898 C-237.60169425 61.81207583 -238.97337158 59.91398246 -240.36083984 58.02758789 C-244.25749092 52.51460394 -246.22014204 49.10819578 -245.1875 42.3125 C-243.14444308 39.24791462 -241.74670198 38.49096872 -238.25 37.375 C-234.44918216 37.29743229 -233.2393996 38.079705 -230.1875 40.3125 C-228.57426211 42.36111519 -227.15873879 44.32799902 -225.76171875 46.51171875 C-225.36926468 47.10676712 -224.97681061 47.70181549 -224.57246399 48.31489563 C-223.33001295 50.20361779 -222.1024086 52.10147644 -220.875 54 C-220.03156388 55.28774189 -219.18717243 56.5748586 -218.34179688 57.86132812 C-216.27923804 61.00459119 -214.22993379 64.15612668 -212.1875 67.3125 C-211.65495605 66.63993164 -211.12241211 65.96736328 -210.57373047 65.27441406 C-209.86619629 64.38463867 -209.15866211 63.49486328 -208.4296875 62.578125 C-207.73214355 61.69930664 -207.03459961 60.82048828 -206.31591797 59.91503906 C-196.06808788 47.38442783 -182.20440866 39.06690916 -166.0546875 36.5859375 C-158.67449042 35.88210399 -151.47925228 35.95006497 -144.1875 37.3125 C-144.08880615 36.75925049 -143.9901123 36.20600098 -143.88842773 35.63598633 C-142.76162828 29.92819972 -141.00003189 25.11567003 -138.25 20 C-137.8573999 19.26652344 -137.4647998 18.53304687 -137.06030273 17.77734375 C-133.05229418 10.60041277 -128.07973325 4.98650238 -122.1875 -0.6875 C-121.38570313 -1.49703125 -120.58390625 -2.3065625 -119.7578125 -3.140625 C-85.45602885 -36.20529515 -34.0947322 -28.36960993 0 0 Z " fill="#FD8100" transform="translate(462.1875,227.6875)"/>
<path d="M0 0 C2.96842697 2.94823359 3.45434753 5.32307147 3.5 9.4375 C3.37841211 13.39174958 3.14376575 14.77781657 0.9375 18.1875 C-2.75093338 20.46334187 -4.73696737 20.69758716 -9 20 C-11.88128105 17.72530444 -13.79209955 15.73477592 -14.23828125 12.01171875 C-14.3713075 7.84589668 -14.38831668 5.62130669 -12.125 2 C-8.40480823 -1.50135696 -4.78724878 -1.56415059 0 0 Z " fill="#FE7F00" transform="translate(356,125)"/>
</svg>
